<?xml version="1.0" encoding="UTF-8" standalone="no"?>
<svg
   xmlns:dc="http://purl.org/dc/elements/1.1/"
   xmlns:cc="http://creativecommons.org/ns#"
   xmlns:rdf="http://www.w3.org/1999/02/22-rdf-syntax-ns#"
   xmlns:svg="http://www.w3.org/2000/svg"
   xmlns="http://www.w3.org/2000/svg"
   xmlns:sodipodi="http://sodipodi.sourceforge.net/DTD/sodipodi-0.dtd"
   xmlns:inkscape="http://www.inkscape.org/namespaces/inkscape"
   version="1.1"
   id="svg2"
   width="756.39783"
   height="351.92746"
   viewBox="0 0 756.39783 351.92746"
   sodipodi:docname="RED BULL LOGO 2026.svg"
   inkscape:version="1.0.2-2 (e86c870879, 2021-01-15)">
  <metadata
     id="metadata8">
    <rdf:RDF>
      <cc:Work
         rdf:about="">
        <dc:format>image/svg+xml</dc:format>
        <dc:type
           rdf:resource="http://purl.org/dc/dcmitype/StillImage" />
        <dc:title></dc:title>
      </cc:Work>
    </rdf:RDF>
  </metadata>
  <defs
     id="defs6">
    <linearGradient
       id="paint0_linear_23240_9022"
       x1="43"
       y1="-0.0082170796"
       x2="43"
       y2="11.1752"
       gradientUnits="userSpaceOnUse"
       gradientTransform="matrix(5.9350256,0,0,5.9350256,1070.8059,414.43814)">
      <stop
         stop-color="#EFEFF0"
         id="stop34" />
      <stop
         offset="1"
         stop-color="#A7A9AC"
         id="stop36" />
    </linearGradient>
    <linearGradient
       id="paint1_linear_23240_9022"
       x1="-50.715801"
       y1="34.495399"
       x2="43"
       y2="40.650002"
       gradientUnits="userSpaceOnUse"
       gradientTransform="matrix(5.9350256,0,0,5.9350256,1070.8059,414.43814)">
      <stop
         stop-color="#EFEFF0"
         id="stop39" />
      <stop
         offset="1"
         stop-color="#A7A9AC"
         id="stop41" />
    </linearGradient>
    <radialGradient
       id="paint2_radial_23240_9022"
       cx="0"
       cy="0"
       r="1"
       gradientUnits="userSpaceOnUse"
       gradientTransform="matrix(180.82658,0,0,180.82658,1330.1819,598.84947)">
      <stop
         stop-color="#EFEFF0"
         id="stop44" />
      <stop
         offset="1"
         stop-color="#A7A9AC"
         id="stop46" />
    </radialGradient>
  </defs>
  <sodipodi:namedview
     pagecolor="#ffffff"
     bordercolor="#666666"
     borderopacity="1"
     objecttolerance="10"
     gridtolerance="10"
     guidetolerance="10"
     inkscape:pageopacity="0"
     inkscape:pageshadow="2"
     inkscape:window-width="1600"
     inkscape:window-height="837"
     id="namedview4"
     showgrid="false"
     inkscape:pagecheckerboard="true"
     fit-margin-top="0"
     fit-margin-left="0"
     fit-margin-right="0"
     fit-margin-bottom="0"
     inkscape:zoom="1.1575153"
     inkscape:cx="521.68247"
     inkscape:cy="160.93676"
     inkscape:window-x="-8"
     inkscape:window-y="-8"
     inkscape:window-maximized="1"
     inkscape:current-layer="g10" />
  <g
     inkscape:groupmode="layer"
     inkscape:label="Image"
     id="g10"
     transform="translate(-121.56186,-780.19255)">
    <g
       id="g248">
      <g
         id="g235">
        <path
           d="m 447.72222,844.09611 h 49.89523 l -26.3553,-42.52997 -48.45137,76.90015 h -22.09526 l 58.92083,-92.28043 c 2.52736,-3.75481 6.85941,-5.99331 11.55366,-5.99331 4.69348,0 8.88158,2.1663 11.40898,5.84895 l 59.13689,92.42479 h -22.02314 l -10.39735,-17.1848 H 458.77001 L 447.72222,844.16822 M 676.764,861.20935 v -80.15019 h -18.77361 v 88.02051 c 0,2.38308 1.01062,4.76629 2.74356,6.4261 1.80498,1.87798 4.26011,2.88855 6.78733,2.88855 h 85.27718 l 11.11963,-17.18497 H 676.69187 M 367.21152,846.91218 c 18.19634,0 32.85377,-14.73024 32.85377,-32.92654 0,-18.19621 -14.65743,-32.92648 -32.85377,-32.92648 H 285.3283 v 97.33516 h 18.70149 V 798.2445 h 61.95423 c 8.66428,0 15.74096,7.00412 15.74096,15.66907 0,8.66482 -7.07668,15.81331 -15.74096,15.81331 h -52.78369 l 55.88839,48.5953 h 27.14964 l -37.548,-31.48227 h 8.52116 m -196.9818,31.55441 h 56.53809 c 26.9335,0 48.5956,-21.73414 48.5956,-48.59517 0,-26.86125 -21.6621,-48.66777 -48.5956,-48.66777 h -56.53809 c -26.86114,0 -48.66786,21.80652 -48.66786,48.66777 0,26.86103 21.80672,48.59517 48.66786,48.59517 z m 55.23842,-17.11283 h -54.01095 c -17.40182,0 -31.48231,-14.15257 -31.48231,-31.48234 0,-17.32979 14.08049,-31.48254 31.48231,-31.48254 h 54.01095 c 17.47469,0 31.55502,14.08062 31.55502,31.48254 0,17.40183 -14.08033,31.48234 -31.55502,31.48234 z m 355.40441,17.11283 h 57.76617 l 10.90358,-17.11283 h -67.44214 c -17.47365,0 -31.55481,-14.15257 -31.55481,-31.48234 0,-17.32979 14.08116,-31.48254 31.55481,-31.48254 h 54.87786 l 11.04751,-17.18523 h -67.22494 c -26.86152,0 -48.73986,21.80652 -48.73986,48.66777 0,26.86103 21.87834,48.59517 48.73986,48.59517 M 809.6973,861.28149 c -14.44135,0 -26.57149,-9.67584 -30.32648,-22.88981 h 80.00558 l 11.04751,-17.18528 h -90.98102 c 3.75487,-13.28617 15.88505,-22.88979 30.32646,-22.88979 h 54.87777 l 10.97535,-17.18523 h -67.15188 c -26.86158,0 -48.66866,21.80652 -48.66866,48.66777 0,26.86103 21.80708,48.59517 48.66866,48.59517 h 57.76526 l 10.97546,-17.11283 z"
           fill="url(#paint0_linear_23240_9022)"
           id="path14"
           style="fill:#ffffff;stroke-width:0.999996" />
        <path
           d="m 184.09344,1096.0892 c 0,-9.8204 -6.85969,-15.7407 -18.41285,-15.8858 h -44.11873 v 51.8434 h 7.50946 v -18.8463 h 35.81517 c 6.42628,0 10.32553,3.2509 10.32553,8.5949 v 10.2514 h 7.65384 v -10.1791 c 0,-5.5603 -2.81599,-9.8205 -7.7983,-11.9876 5.77655,-2.238 9.17036,-7.2206 9.17036,-13.7182 z m -18.41285,10.2533 H 128.9271 v -19.2797 h 36.75349 c 10.03679,0 10.83112,7.3652 10.83112,9.6755 0,2.3119 -0.79433,9.6766 -10.83112,9.6766 z m 150.04703,-15.8854 c -3.82687,-7.7273 -8.16017,-10.9039 -15.09154,-10.9039 -6.93156,0 -11.48085,3.2496 -15.1637,10.9039 l -19.71201,40.2927 -0.65029,1.297 h 8.08713 l 0.21712,-0.5045 7.00349,-14.3682 h 40.2194 l 7.00441,14.3682 0.21619,0.5045 h 8.08796 l -0.6503,-1.297 -19.71277,-40.2927 z m -31.84391,19.9286 8.73732,-17.9079 c 2.09401,-4.2598 4.40427,-5.993 7.94291,-5.993 3.53797,0 5.84903,1.7332 7.943,5.993 l 8.73661,17.9079 z m 130.69575,-4.2594 c 0,17.5455 7.58187,25.7773 23.97226,25.9205 h 40.58045 v -7.2911 h -40.07514 c -12.34731,0 -16.8957,-5.0549 -16.8957,-18.5572 0,-13.5036 4.54839,-18.5579 16.8957,-18.5579 h 40.07514 v -7.3655 h -40.58045 c -16.60751,0.145 -23.97226,8.16 -23.97226,25.9234 z m 149.54081,25.9205 h 7.50976 v -51.7717 h -7.50976 z m 154.66814,-7.5086 c -7.14876,0 -8.80955,-2.3099 -21.80618,-19.7118 l -0.57822,-0.7945 c -14.00801,-18.7022 -17.76306,-23.7568 -29.96603,-23.8285 h -6.13736 v 51.8434 h 7.36488 v -44.3341 c 6.71532,0 8.44824,2.2381 21.1566,18.8466 l 1.58882,2.0209 c 14.08026,18.4137 17.90802,23.3953 29.67711,23.4666 h 6.13803 v -51.8434 h -7.43765 z m 150.91312,-19.2075 v 19.425 h -32.92661 c -12.34715,0 -16.89648,-5.0549 -16.89648,-18.6296 0,-13.5755 4.54933,-18.4855 16.89648,-18.4855 h 39.85911 v -7.3655 h -40.3644 c -16.39119,0.145 -23.97297,8.3757 -23.97297,25.851 0,17.4733 7.6547,25.8494 23.97297,25.9939 h 40.86951 v -26.7173 h -7.50953 z"
           fill="url(#paint1_linear_23240_9022)"
           id="path16"
           style="fill:#ffffff;stroke-width:0.999996" />
        <path
           d="m 315.29443,1048.216 h -7.65387 c -84.62774,0 -186.0787,1.8047 -186.0787,3.1041 0,1.2997 83.76059,4.5491 186.15078,4.5491 h 17.04067 358.72627 7.65375 c 84.62671,0 186.07798,-1.7325 186.07798,-3.105 0,-1.3722 -83.76036,-4.5482 -186.15013,-4.5482 h -17.0415 z"
           fill="url(#paint2_radial_23240_9022)"
           id="path18"
           style="fill:#ffffff;stroke-width:0.999996" />
        <g
           id="g186"
           transform="matrix(0.64905943,0,0,0.64905943,190.08019,428.45771)"
           style="stroke-width:1.54071">
          <path
             d="m 158.0326,745.25862 v 59.26067 c -5.5687,-2.20247 -11.5045,-3.32931 -17.4929,-3.32085 -20.852,0.37802 -39.2836,13.64733 -46.258,33.30198 -2.269,-7.86462 -6.4465,-15.04661 -12.1608,-20.90728 -10.0991,-9.84535 -23.7388,-15.20682 -37.8389,-14.87363 -17.3407,0.062 -33.5601,8.58197 -43.4516,22.82494 2.8136,-6.44662 4.2627,-13.4057 4.2563,-20.43955 0.2858,-27.21694 -21.5205,-49.52553 -48.7369,-49.85941 h -61.038 V 905.2671 H 24.965 c 6.1531,2.48904 12.7264,3.77512 19.3638,3.78857 20.0677,0.84418 38.9339,-9.5629 48.9239,-26.98769 l 2.5725,-4.67725 c 7.807,17.85395 25.324,29.5015 44.808,29.79404 4.45,-0.0108 8.8756,-0.65648 13.1431,-1.91767 h 50.3739 V 745.25862 Z m 272.1687,1.07576 v 0 56.12692 H 328.5181 c 0.2877,-2.09234 0.4284,-4.20227 0.4209,-6.31428 0,-26.00547 -21.5153,-44.90153 -51.2158,-44.90153 h -55.5656 v 154.06839 h 65.9959 c 18.6927,0.65641 36.2863,-8.81983 46.024,-24.78939 7.0627,16.60421 26.0055,28.48441 48.1756,28.48441 6.9562,0.005 13.859,-1.21433 20.3928,-3.60148 H 520.8463 V 746.38116 Z"
             style="fill:#ffffff;stroke-width:1.54071"
             id="path135"
             sodipodi:nodetypes="cccccccccccccccccccccccccsccccccccc" />
          <path
             d="m 439.7897,896.19325 h 26.0055 V 755.87596 H 439.7897 Z M 44.4223,808.49494 v 0 c -34.5989,1.11753 -55.412,38.8318 -37.9147,68.70027 17.4972,29.86847 60.5724,30.1563 78.4664,0.52293 L 63.3184,867.52175 c -3.0554,6.42969 -9.5798,10.48692 -16.6978,10.38348 -9.6969,0.31526 -17.8174,-7.28196 -18.1477,-16.97839 0,-0.60804 -0.2338,-0.37418 0,-0.93545 h 58.9333 c 0.1757,-1.89681 0.2537,-3.80141 0.2338,-5.70624 0.421,-29.5134 -18.7089,-45.69666 -43.0306,-45.69666 z m -16.0429,35.73414 v 0 c 0,-9.04334 7.327,-16.37607 16.3704,-16.37607 9.0433,0 16.3735,7.33273 16.3703,16.37607 z m 139.2883,-89.19502 v 0 67.16521 c -7.2017,-7.15439 -16.93,-11.18681 -27.0813,-11.22539 -22.2636,0 -40.271,19.50411 -40.271,43.49836 0,23.99426 18.0541,43.49836 40.271,43.49836 10.2501,-0.0729 20.0478,-4.23108 27.2216,-11.55279 v 9.63512 h 26.7538 V 755.03406 Z m -19.317,120.48578 v 0 c -19.4232,1.48869 -30.5876,-21.61567 -17.3571,-35.9096 13.2304,-14.29393 37.1274,-4.94554 37.1418,14.5346 0.4216,11.35943 -8.4266,20.91883 -19.7847,21.375 z M 485.4396,756.10982 v 0 140.31729 H 511.445 V 756.10982 Z m -87.6048,105.09765 v 0 c -0.011,8.41336 -6.8344,15.2279 -15.2478,15.2279 -8.4134,0 -15.2368,-6.81454 -15.2478,-15.2279 v -48.87719 h -26.6135 v 54.06893 c 0,18.42834 18.7089,33.39552 41.6274,33.39552 22.9185,0 41.6275,-14.92041 41.6275,-33.39552 v -54.06893 h -26.2861 v 48.87719 z m -90.3643,-38.30662 v 0 c 7.6726,-6.63585 12.0776,-16.28227 12.0673,-26.42642 0,-19.41056 -15.6688,-35.35996 -41.6743,-35.35996 h -46.1176 v 134.93846 h 56.4543 c 24.9297,0 42.5162,-17.30579 42.5162,-38.44693 0,-21.14114 -9.3545,-28.39087 -23.3862,-34.75192 z m -21.7024,49.53201 h -26.1926 v -87.46445 h 18.709 c 7.6503,0.43574 13.6308,6.76656 13.6308,14.4293 0,7.66273 -5.9805,13.99355 -13.6308,14.42929 h -9.6819 v 24.41521 h 17.2122 c 9.0944,0.47584 16.2242,7.98854 16.2242,17.09532 0,9.10679 -7.1298,16.61949 -16.2242,17.09533 z M -4.221,801.38553 v 0 C -3.9087,779.44572 -21.43,761.40107 -43.3695,761.0677 h -51.4497 v 134.89169 h 27.6425 V 784.96841 h 18.1477 c 9.8877,-0.23752 18.0162,7.74283 17.9606,17.63321 -0.2017,10.07819 -8.6365,18.02797 -18.709,17.6332 h -8.6529 v 32.74071 l 29.8876,43.12418 H 4.198 l -38.213,-55.42533 c 17.7391,-4.70481 30.0263,-20.84385 29.8408,-39.1953 z"
             style="fill:#ea1d2c;fill-opacity:1;stroke-width:1.54071"
             id="path137"
             sodipodi:nodetypes="ccccccssccccccccccssccccccsccccccssscscccccccsscccssscccccscsccssccccccsccccscccsccccccccccccccc" />
        </g>
        <g
           id="g213"
           transform="matrix(0.62209408,0,0,0.62209408,217.9546,286.84871)"
           style="stroke-width:1.60749">
          <path
             d="m 903.86682,1087.7791 a 96.58507,96.58507 0 1 1 -96.5851,-96.39803 96.58507,96.58507 0 0 1 96.5851,96.58503 z"
             style="fill:#ffcd00;fill-rule:evenodd;stroke-width:1.60749"
             id="path162" />
          <path
             d="m 799.98522,1130.6694 v 0 c -2.3549,-1.4445 -4.2774,-3.4964 -5.5659,-5.9401 -0.4677,-0.8419 -0.9354,-1.6838 -1.4032,-2.5257 l -0.5145,-0.9823 c -0.5837,-1.1423 -1.2562,-2.237 -2.0112,-3.274 l -1.0757,-1.2161 -1.1226,-1.1693 -0.9354,-1.0758 c -0.228,-0.2683 -0.4169,-0.5675 -0.5613,-0.8887 -4.0742,-10.3314 -6.7027,-21.1759 -7.811,-32.2262 -0.8887,-6.4546 -4.6772,-11.6463 -11.2254,-19.4573 -0.7951,-0.9822 -1.6838,-2.1048 -2.6192,-3.3676 l -2.0112,-2.5725 c -1.5929,-2.0826 -3.311,-4.0663 -5.145,-5.9401 l -6.1272,-5.1917 -6.8288,-5.7531 c -3.2683,-2.7259 -6.6713,-5.286 -10.1964,-7.6706 -4.4324,-3.0449 -9.6832,-4.6756 -15.0607,-4.6773 -3.7302,-0.09 -7.4151,0.8313 -10.6641,2.6661 -3.6822,2.6127 -7.6336,4.8237 -11.7867,6.5949 -2.7595,1.1693 -5.6594,2.1047 -9.3544,3.274 l -3.7886,1.2629 c -3.5044,1.2042 -6.6989,3.1688 -9.3545,5.753 l -1.4499,1.4032 -1.45,1.4032 c -0.6273,0.6503 -1.3735,1.1743 -2.1983,1.5434 -1.0211,0.2854 -2.0738,0.4426 -3.1337,0.4678 h -2.3387 -1.637 c -4.1217,0.4559 -7.9977,2.1894 -11.0851,4.9578 -1.2628,1.029 -2.4789,2.1048 -3.6482,3.1806 l -0.5613,0.5145 c -1.077,1.0404 -2.2343,1.9943 -3.4611,2.8531 -3.0669,1.8025 -6.5462,2.7851 -10.1029,2.8531 -1.8997,0.1605 -3.7891,0.4259 -5.6595,0.7951 -2.3746,0.4888 -4.6826,1.2582 -6.8755,2.2919 -2.8933,1.4003 -5.6627,3.0432 -8.2787,4.9111 l -4.0692,2.8999 -3.5547,2.5257 c -4.1422,3.5224 -9.2718,5.6788 -14.6866,6.174 -4.3905,0.3814 -8.2789,-2.8208 -8.7464,-7.203 -0.1772,-4.3941 1.9275,-8.5682 5.5659,-11.0383 l 2.1983,-1.7773 c 1.637,-1.3097 3.1805,-2.5725 4.6772,-3.7418 1.8963,-1.541 3.6212,-3.2816 5.145,-5.1918 2.9642,-3.7127 3.893,-8.6543 2.479,-13.1898 -1.5474,-5.0222 -5.7713,-8.7588 -10.9448,-9.6819 -2.1496,-0.6109 -4.337,-1.0796 -6.5481,-1.4032 h -0.7484 l -1.7306,-0.2806 -1.4499,-0.3742 c -4.1782,-2.2259 -8.2231,-4.6934 -12.1141,-7.39 l -0.608,-0.421 -0.421,0.608 c -2.0569,2.9688 -3.1658,6.4912 -3.1805,10.1029 -0.2513,9.1369 6.5385,16.9431 15.622,17.9606 1.2503,0.222 1.6735,1.8021 0.7016,2.6193 -11.0383,8.6996 -13.3769,12.3947 -14.0317,22.1701 -0.3806,5.9914 1.7162,11.8761 5.7997,16.2768 4.9455,4.921 11.7418,7.5206 18.709,7.1562 2.1616,-0.01 4.3195,-0.1775 6.4546,-0.5145 v 0 c 0.7748,0 1.4241,0.585 1.4967,1.3564 0.096,5.0956 1.2092,10.1206 3.2741,14.7801 0.374,0.6005 0.2764,1.3809 -0.2339,1.8709 -0.6401,0.5286 -1.3684,0.9403 -2.1515,1.2161 -3.0108,1.0254 -6.174,1.5315 -9.3545,1.4967 -2.1983,0 -3.8821,1.5435 -5.1917,4.6772 -0.421,1.0758 -0.7952,2.1983 -1.1226,3.3209 v 0.3274 c 0,0.5612 -0.3274,1.0757 -0.5145,1.5435 -0.1297,0.3845 -0.2859,0.7596 -0.4677,1.1225 -0.5321,0.9021 -1.212,1.7085 -2.0112,2.3854 -0.2714,0.2394 -0.6203,0.3723 -0.9822,0.3742 h -0.2339 c -0.4372,-0.084 -0.8144,-0.3583 -1.029,-0.7484 -1.0634,-1.9302 -2.9329,-3.2851 -5.0982,-3.695 h -0.2806 c -5.0046,0.5003 -9.3586,3.6409 -11.4125,8.2319 -0.2026,0.5117 -0.6696,0.871 -1.2161,0.9355 h -0.2806 c -2.4321,0.074 -4.5688,1.6344 -5.3788,3.9289 -0.3761,1.0326 -0.6579,2.0971 -0.8419,3.1805 v 0.7484 c 0,0.8419 -0.3274,1.6838 -0.5145,2.4789 -0.1701,0.6525 -0.4215,1.2811 -0.7484,1.8709 l -0.5145,0.8887 -0.3742,0.608 c -0.718,1.2671 -0.8707,2.7776 -0.4209,4.1628 0.3418,1.0032 1.0882,1.8175 2.058,2.245 1.0371,0.5277 2.1373,0.9206 3.274,1.1693 1.6886,0.4058 3.4108,0.6563 5.145,0.7484 0.3464,-0.01 0.6853,-0.1021 0.9822,-0.2806 l 0.7016,-0.4678 c 0.2849,-0.2095 0.6285,-0.3241 0.9822,-0.3274 v 0 h 1.0758 l 3.1338,0.6081 v 0 l 2.9934,0.608 h 1.1693 0.7951 v 0 c 3.1163,0.142 6.0984,-1.2789 7.9513,-3.7885 0.3691,-0.4967 0.7125,-1.0118 1.029,-1.5435 l 0.5145,-0.8887 0.3742,-0.6548 c 0.3742,-0.6548 0.7484,-1.2629 1.1693,-1.8242 0.2846,-0.3857 0.7368,-0.6117 1.2161,-0.608 h 0.3742 l 1.5435,0.3274 c 1.0757,0 2.058,0.2806 2.4789,0.3274 h 0.8887 c 3.931,-0.2341 7.6407,-1.8977 10.4302,-4.6772 l 0.8887,-0.7484 1.2161,-1.0758 c 0.644,-0.548 1.3152,-1.0631 2.0112,-1.5434 1.0258,-0.7849 2.2649,-1.2414 3.5547,-1.3097 h 0.2807 c 1.0757,0 5.0514,0.3742 11.8334,1.45 h 0.8887 c 2.0174,-0.1189 3.99,-0.6439 5.7997,-1.5435 1.9035,-0.8754 3.7473,-1.8754 5.5192,-2.9935 0.4829,-0.2803 0.9827,-0.5302 1.4967,-0.7483 v 0 l 1.7306,-0.8419 c 1.5656,-0.7405 2.9534,-1.8093 4.0692,-3.1338 1.0784,-1.6003 2.0173,-3.2903 2.8063,-5.0514 l 1.1226,-2.2451 1.9176,-3.8821 c 0.2653,-0.5003 0.7903,-0.808 1.3564,-0.7951 h 0.421 c 2.2728,-0.066 4.5385,-0.2851 6.782,-0.6548 l 2.8063,-0.421 c 2.0113,-0.3274 3.7418,-0.608 5.0515,-0.6548 h 2.3386 2.666 c 3.3676,0 6.1272,0.2806 8.4191,0.2806 h 3.5547 c 1.5824,-0.1021 3.1499,-0.3686 4.6772,-0.7951 l 1.1693,-0.4209 h 0.6081 c 0.3843,0 0.7527,0.1537 1.0289,0.4209 l 2.3387,2.1516 c 0.9187,0.8688 0.4127,2.4149 -0.8419,2.5724 h -0.8887 c -1.3286,0.1043 -2.5746,0.6858 -3.5079,1.6371 -0.2843,0.355 -0.7146,0.5615 -1.1694,0.5612 h -0.608 -0.608 c -0.4193,-0.053 -0.8436,-0.053 -1.2629,0 h -1.8709 c -2.4081,-0.041 -4.8159,0.1 -7.2029,0.421 -1.3692,0.1793 -2.6978,0.5906 -3.9289,1.2161 -1.1368,0.5356 -1.8517,1.6903 -1.8242,2.9466 1.2153,4.804 3.5379,9.257 6.782,13.0028 1.2602,0.7805 2.7294,1.156 4.2096,1.0757 h 0.7483 c 0.5494,0 1.0522,0.3098 1.3097,0.7952 2.0389,4.8949 6.5295,8.3342 11.7866,9.0271 h 0.2806 c 8.0042,-1.572 15.7602,-4.2151 23.0588,-7.8578 h 0.3275 0.8419 1.5434 0.7952 c 1.7486,-0.1307 3.4674,-0.5249 5.0982,-1.1693 2.0652,-1.6589 3.6747,-3.8156 4.6772,-6.2675 0.2494,-0.4929 0.7572,-0.8012 1.3096,-0.7952 v 0 c 0.5871,0.064 1.0818,0.4669 1.2629,1.029 0.1756,0.5989 0.4106,1.1786 0.7016,1.7306 1.3968,2.5495 4.166,4.035 7.0626,3.7886 h 0.5613 c 2.4137,-0.2182 4.7883,-0.7529 7.0626,-1.5903 l 1.2629,-0.4209 c 1.7389,-0.6392 3.5206,-1.1549 5.332,-1.5435 0.6846,-0.062 1.3734,-0.062 2.058,0 h 1.3564 2.1048 1.4499 2.1516 c 1.7366,0.061 3.4643,-0.2745 5.0514,-0.9822 1.665,-0.7464 3.2352,-1.6885 4.6772,-2.8064 l 0.3742,-0.2806 c 0.2444,-0.1793 0.5388,-0.2774 0.8419,-0.2807 0.3619,0 0.7108,0.1349 0.9822,0.3742 5.0829,4.5 11.6397,6.9796 18.4284,6.9691 h 0.9354 c 1.7844,0.028 3.4923,-0.7236 4.6773,-2.058 0.6223,-0.8112 0.8299,-1.8666 0.5612,-2.8531 -0.1586,-0.3736 -0.1586,-0.7957 0,-1.1693 0.2239,-0.3436 0.579,-0.5804 0.9823,-0.6548 1.3393,-0.1842 2.6017,-0.7345 3.6482,-1.5903 0.797,-0.6862 1.2856,-1.6634 1.3564,-2.7128 0.019,-0.609 -0.2389,-1.1938 -0.7016,-1.5902 -1.4139,-1.1958 -2.9882,-2.1877 -4.6772,-2.9467 z m -65.7152,-11.4593 v 0 c -1.029,1.2629 -2.5257,1.6371 -3.8821,4.0692 -2.7596,-1.0757 -3.2741,-4.6772 -3.7886,-6.3143 2.1983,-0.4209 7.4368,-1.4031 10.1964,-1.8241 -1.0901,1.1857 -1.947,2.5662 -2.5257,4.0692 z m 83.5823,22.7782 v 0 c 0.2865,0.3536 0.3904,0.8212 0.2806,1.2629 -0.1731,0.618 -0.033,1.2816 0.3742,1.7773 1.3413,1.3166 3.1264,2.0841 5.0047,2.1515 h 0.608 c 6.6047,0.096 12.9419,-2.6053 17.4461,-7.4368 0.5772,-0.5464 1.4808,-0.5464 2.058,0 2.0511,1.7997 4.7095,2.7527 7.4368,2.6661 h 0.3274 c 1.408,-0.034 2.8132,-0.1434 4.2095,-0.3275 h 1.9177 1.5903 c 1.1186,0.1365 2.2175,0.4034 3.2741,0.7952 l 3.0869,1.1693 0.9355,0.3742 c 2.4166,1.0759 4.991,1.755 7.6239,2.0112 h 0.3742 c 3.8782,-0.1982 7.1672,-2.9169 8.0916,-6.6885 0.1871,-0.6167 0.7588,-1.0359 1.4032,-1.029 v 0 c 0.6711,0 1.2516,0.4687 1.4031,1.1226 0,0.5612 0.1403,1.1069 0.421,1.637 0.563,2.3691 1.8164,4.5178 3.6015,6.174 0.6009,0.4934 1.332,0.8021 2.1047,0.8886 1.1989,0.089 2.4026,0.089 3.6015,0 0.3185,0 0.6299,0.095 0.8887,0.2807 l 0.7951,0.7483 1.029,1.029 c 0.3855,0.3413 0.829,0.6106 1.3096,0.7951 7.1805,2.6827 14.654,4.504 22.2637,5.4257 v 0 c 6.6885,0 8.9803,-6.4079 9.6351,-9.3545 0.1359,-0.5712 0.5931,-1.0101 1.1693,-1.1226 6.2676,-1.2161 9.6819,-10.6173 9.6819,-12.2544 0,-3.0402 -1.216,-4.2095 -4.2095,-4.4433 h -10.898 -0.7483 -0.421 c -0.5134,0 -0.9901,-0.2666 -1.2628,-0.7016 -0.3368,-0.563 -0.8987,-0.9546 -1.5435,-1.0758 -0.5582,-0.1285 -0.994,-0.5644 -1.1226,-1.1225 -0.1399,-0.5568 0.062,-1.1437 0.5145,-1.4967 l 0.6549,-0.5613 c 0.2734,-0.2715 0.6437,-0.4229 1.029,-0.421 v 0 h 7.1094 3.4143 c 2.1984,0 4.0225,-0.3274 5.9401,-0.5612 3.5989,-0.4602 7.2231,-0.6945 10.8513,-0.7016 l 10.1963,0.5613 c 1.9961,0.024 3.9839,-0.2599 5.8934,-0.842 h 0.4677 c 0.2818,0 0.5574,0.083 0.7951,0.2339 0.3707,0.2401 0.6118,0.6362 0.6548,1.0758 0.428,4.7049 2.0368,9.2255 4.6773,13.143 0.7273,0.9548 1.6133,1.7775 2.6192,2.4322 l 1.8242,1.1225 1.0757,0.6548 c 3.0491,2.5288 6.8079,4.0487 10.7577,4.3499 1.1667,0 2.3294,-0.1373 3.4611,-0.421 1.253,-0.3204 2.5421,-0.4776 3.8354,-0.4677 h 1.9177 c 1.45178,0.1823 2.88948,0.4636 4.30298,0.8419 h 0.3274 c 1.9768,0.496 3.8685,1.2842 5.6127,2.3386 1.3935,0.8576 2.7365,1.7946 4.0224,2.8064 l 0.3275,0.2338 c 2.3231,2.1956 5.3263,3.5322 8.5125,3.7886 h 0.421 0.608 0.7016 l 1.6371,-0.6548 c 0.6038,-0.2591 1.23,-0.4627 1.8708,-0.608 h 0.2807 c 0.4879,0.01 0.9417,0.2513 1.2161,0.6548 l 0.5612,0.8886 c 0.3557,0.6142 0.7461,1.2076 1.1693,1.7774 2.3157,2.9178 5.9188,4.5094 9.6352,4.2563 h 1.5435 c 1.909,0.028 3.8172,-0.097 5.7062,-0.3742 h 0.2339 c 0.3026,0.01 0.5961,0.1041 0.8419,0.2806 0.5827,0.4286 1.2879,0.6582 2.0112,0.6549 1.9673,-0.085 3.9088,-0.4793 5.753,-1.1694 0.9642,-0.3414 1.877,-0.8135 2.7128,-1.4031 0.7793,-0.4843 1.3345,-1.2581 1.5435,-2.1516 0.1411,-0.7102 0.1411,-1.4413 0,-2.1515 -0.2083,-0.7615 -0.4581,-1.5109 -0.7484,-2.2451 v -0.608 l -0.5613,-1.4967 c -0.012,-0.2181 -0.012,-0.4367 0,-0.6548 -0.019,-0.1397 -0.019,-0.2813 0,-0.421 0.2362,-2.1613 -0.3115,-4.3357 -1.5434,-6.1272 -0.5372,-1.1362 -1.609,-1.9269 -2.8532,-2.1047 -0.2138,0.5633 -0.7538,0.9357 -1.3564,0.9354 h -0.2338 c -0.7977,-0.1427 -1.3492,-0.878 -1.2629,-1.6838 v -0.608 c 0.027,-0.7357 -0.1514,-1.4644 -0.5145,-2.1048 -2.662,-3.3452 -6.2117,-5.8738 -10.2431,-7.2965 -2.3002,0.1078 -4.4373,1.2191 -5.8466,3.0402 -0.2696,0.3477 -0.6826,0.5542 -1.1225,0.5613 v 0 c -0.4889,-0.043 -0.9258,-0.3223 -1.1693,-0.7484 -0.4565,-0.4889 -0.8639,-1.0216 -1.2161,-1.5902 -0.4174,-1.1901 -0.7457,-2.4096 -0.9822,-3.6483 v -0.9354 c -0.2614,-3.4753 -2.6148,-6.4403 -5.9401,-7.4836 h -1.3097 -1.4499 -0.3742 c -0.8567,0.052 -1.7158,0.052 -2.5725,0 -1.7306,-0.2339 -2.8531,-0.7952 -2.8531,-2.7128 -0.024,-0.155 -0.024,-0.3128 0,-0.4678 l 0.4677,-1.3096 c 0.4939,-1.3761 0.9,-2.7821 1.2161,-4.2095 0.6587,-2.9414 0.6587,-5.9921 0,-8.9335 -0.2088,-0.9313 0.4956,-1.8175 1.45,-1.8242 v 0 c 1.161,0.1777 2.3334,0.2715 3.5079,0.2807 8.9335,0 23.0588,-5.7998 23.0588,-21.4218 0,-8.9803 -7.2497,-17.4929 -13.3769,-23.0588 -0.8417,-0.7939 -0.5028,-2.2018 0.608,-2.5257 7.8858,-1.3229 13.6036,-8.2361 13.4237,-16.2301 v -0.5612 c 0.043,-1.4384 -0.036,-2.8778 -0.2339,-4.3031 -0.379,-2.2105 -1.224,-4.3151 -2.4789,-6.1739 -0.1772,-0.2897 -0.5039,-0.453 -0.8419,-0.421 h -0.3742 c -0.3495,0.1046 -0.6807,0.2623 -0.9822,0.4677 -1.0073,0.7277 -1.9753,1.5084 -2.8999,2.3386 -1.2125,0.9987 -2.6117,1.746 -4.116,2.1983 -1.0757,0.3742 -2.1983,0.6549 -3.4143,0.9823 l -1.9645,0.5145 c -5.0714,1.2777 -9.7576,3.7652 -13.6575,7.2497 -2.387,2.2331 -3.8266,5.2965 -4.0225,8.5593 -0.01,3.0904 1.0696,6.0853 3.0402,8.4659 2.1226,2.7321 4.4863,5.268 7.0627,7.5771 l 0.9354,0.8887 2.8064,2.7128 c 1.1347,1.1137 2.2119,2.2845 3.2273,3.5079 1.7441,1.8004 2.8173,4.145 3.0402,6.6417 0.1031,4.1242 -3.4238,7.4101 -7.5304,7.0159 -5.212,-0.318 -10.1967,-2.2465 -14.2656,-5.5192 l -2.5257,-1.6838 c -1.7773,-1.2161 -3.6482,-2.4322 -5.6595,-3.7418 -3.46018,-2.1855 -7.07068,-4.1236 -10.80438,-5.7998 -1.9509,-0.8638 -3.9687,-1.5677 -6.0336,-2.1047 -1.5435,-0.421 -3.0402,-0.7016 -4.6773,-1.029 h -0.7016 c -3.1678,-0.4792 -6.2063,-1.5928 -8.9335,-3.2741 l -2.5725,-1.7306 c -1.5435,-1.029 -3.087,-2.1047 -4.6772,-3.1337 -2.4393,-1.6183 -5.0814,-2.9078 -7.8578,-3.8354 -0.7807,-0.2327 -1.5782,-0.4047 -2.3854,-0.5145 h -1.2161 -0.9354 c -1.4125,-0.144 -2.781,-0.5737 -4.0224,-1.2628 -0.8717,-0.5153 -1.7149,-1.0774 -2.5258,-1.6838 l -1.8709,-1.45 -0.4209,-0.3274 c -1.8709,-1.5041 -3.8748,-2.8348 -5.9869,-3.9756 -3.6375,-1.8723 -7.5063,-3.2562 -11.506,-4.116 h -0.6548 c -1.3564,-0.3274 -2.4789,-0.6081 -3.5079,-0.9355 -0.4686,-0.1446 -0.9227,-0.3325 -1.3564,-0.5612 l -0.4678,-0.2807 -0.2806,-0.2806 c -5.1305,-7.0331 -13.1912,-11.339 -21.8895,-11.6931 h -1.9177 c -4.1825,1.1353 -8.0111,3.307 -11.1318,6.3143 l -3.9757,3.3208 c -2.7128,2.3386 -5.5191,4.6773 -8.2787,6.6885 -9.5619,6.1137 -18.3556,13.3528 -26.1925,21.5621 -9.3545,9.9625 -11.9738,22.6378 -14.5463,33.8164 v 0.7952 c -1.1133,5.4793 -2.566,10.8841 -4.3498,16.1832 -1.7724,5.3184 -4.6585,10.1977 -8.4658,14.3124 -1.3994,1.5017 -2.8829,2.9227 -4.4434,4.2563 -0.8419,0.7016 -1.4499,1.1225 -2.0112,1.4967 l -0.3742,0.2806 c -1.3716,0.7436 -2.0647,2.3224 -1.6838,3.8354 1.2372,2.5093 3.9056,3.9834 6.6885,3.695 0.4383,0.014 0.8486,0.2188 1.1225,0.5613 z m 71.515,-25.1168 v 0 c -0.4209,0.7951 -3.3208,7.39 -3.7885,8.3723 -0.9822,-1.9177 -4.4434,-6.1272 -3.9757,-8.7932 2.5257,0.3274 6.3611,0.3274 7.7642,0.4209 z"
             style="fill:#ffffff;stroke-width:1.60749"
             id="path164"
             sodipodi:nodetypes="csccccccccccccccccccccccccccccccccccccccccccccccccccccsccccccsscccccccscccccccccccccsccccccccccscccccccscccscccccccccccsccccsccccccccccccssccccccccccccccccccccccccccccccssccccccccccccccccccccccccccccsscccscscccccccccccccccccsscccccccccssccscccccccccsccscccccccccccccccccccccccccccccccccccccccccccccccsccccccsscccccccccccccssscsccccccccccccccccccccccccccccccccccccccccccccccccccccccccccccccccssccs" />
          <path
             d="m 1050.5451,1156.1603 c 0.3274,0.6081 0,1.8242 0.9355,1.8242 l 5.4724,-1.8242 c 0.9354,-1.5435 -0.8419,-2.7595 -1.2161,-4.2095 -0.3742,-1.4499 0,-4.6772 -1.2161,-6.5013 -1.1225,-0.8419 -2.1515,-2.1516 -3.6015,-1.8242 -1.4499,0.3274 -2.9934,2.2451 -2.7596,4.0225 0.9877,2.7762 1.7694,5.6214 2.3387,8.5125 z m -488.86538,1.029 v 0 c 1.029,-3.3676 1.8241,-7.0158 2.9934,-9.9625 v -0.8419 c -1.029,-1.2628 -2.058,-2.8999 -3.7885,-3.2741 -1.5075,0.6685 -2.6625,1.9424 -3.1806,3.508 -0.4209,2.7595 0,5.332 -1.9644,7.2965 0,0.5145 -0.608,1.1225 0,1.637 1.932,0.7563 3.9389,1.305 5.9869,1.637 z m 475.81588,-21.1411 v 0 c 0.9103,2.0562 2.1243,3.964 3.6015,5.6595 0.6664,1.0337 1.7692,1.7057 2.9934,1.8241 1.1167,-0.05 2.1786,-0.4977 2.9935,-1.2629 0.7636,-0.7421 1.1431,-1.7944 1.029,-2.8531 -1.8637,-2.0265 -3.9685,-3.8172 -6.2675,-5.332 -1.7306,-1.45 -3.508,0.7015 -4.3966,1.9644 z m -470.76448,6.6417 v 0 c 1.0276,0.3715 2.1529,0.3715 3.1805,0 2.4995,-1.7742 4.4845,-4.1787 5.753,-6.9691 -0.4281,-0.9448 -1.1077,-1.7538 -1.9644,-2.3386 -0.5145,-0.421 -1.2628,0 -1.8709,0 -1.8661,1.5573 -3.8523,2.9649 -5.9401,4.2095 -0.8419,0.608 -0.5145,1.8709 -0.7016,2.8531 -0.1871,0.9822 1.029,1.45 1.5435,1.9645 z m 231.1026,-9.3545 v 0 c -5.145,-2.9934 -7.203,-8.6529 -10.3835,-13.1431 -1.1225,-1.637 -3.087,-2.666 -4.116,-4.303 -4.0541,-10.111 -6.6829,-20.7365 -7.811,-31.5714 -0.5902,-2.9222 -1.5653,-5.7532 -2.8998,-8.419 -4.9417,-7.5174 -10.4289,-14.6616 -16.4172,-21.375 l -1.637,-1.6371 -20.346,-16.9316 c -2.5404,-1.7643 -5.2702,-3.239 -8.1384,-4.3966 -4.6785,-1.5476 -9.7571,-1.365 -14.3124,0.5145 -4.1178,2.7457 -8.4505,5.1545 -12.9559,7.2029 -6.6885,2.9935 -14.0318,3.6015 -20.0186,8.7465 -3.3677,2.8999 -6.174,7.4836 -11.1787,6.6884 -5.411,-0.1799 -10.6901,1.6912 -14.78,5.2386 -3.2536,3.857 -7.487,6.7654 -12.2544,8.419 -4.3031,1.8241 -9.3545,0.9354 -14.0317,2.5725 -6.9691,1.7306 -12.4415,7.2029 -18.3816,11.4125 -5.4815,4.1954 -12.0608,6.7134 -18.9428,7.2497 -4.9762,-0.3884 -9.2698,-3.6406 -10.9916,-8.3255 -1.4543,-5.2483 0.2596,-10.8641 4.3966,-14.4059 4.3966,-5.2385 11.319,-8.3255 14.7801,-14.3592 1.8292,-3.6393 1.5056,-7.9902 -0.8419,-11.3189 -4.6772,-4.6772 -11.085,-4.6772 -16.9784,-6.361 -3.5603,-1.5283 -6.9342,-3.4585 -10.056,-5.753 -1.2336,1.9307 -1.7776,4.2221 -1.5435,6.5013 0.8658,5.5728 4.6765,10.2422 9.9625,12.2076 3.0793,0.6339 6.2111,0.9784 9.3545,1.029 0.9448,0.3455 1.6379,1.1629 1.8241,2.1515 -0.027,0.8834 -0.3963,1.7217 -1.029,2.3387 -5.0826,3.8231 -9.7819,8.1307 -14.0317,12.8624 -4.1085,5.3414 -5.0869,12.4569 -2.5725,18.709 2.8463,6.5853 9.0059,11.138 16.1365,11.9269 4.6342,0.3977 9.3017,-0.094 13.7511,-1.4499 0.608,0 0.8419,0.608 1.1225,0.9354 0.01,3.7059 0.2419,7.4078 0.7016,11.0851 0.8214,3.0456 1.8529,6.0306 3.087,8.9335 0.2243,1.1258 -0.067,2.2928 -0.7951,3.1806 -2.4148,1.7782 -5.038,3.2547 -7.811,4.3966 l -6.6885,0.4209 -1.3096,0.6081 c -1.8386,2.8913 -3.2265,6.0455 -4.116,9.3544 -2.4011,3.0305 -5.4977,5.4372 -9.0271,7.0159 -0.9753,1.7202 -2.1877,3.2947 -3.6015,4.6773 -1.1156,0.9003 -2.4958,1.4097 -3.9288,1.4499 -2.0301,2.9449 -3.2113,6.3914 -3.4144,9.9625 3.7885,0.3274 7.7174,2.3854 11.4124,0.3274 3.6951,-2.058 3.8822,-5.332 6.2676,-7.6239 2.3853,-2.2918 4.6772,-0.5145 6.969,0 3.3209,0 5.7531,-2.245 8.5594,-3.3676 1.9644,-1.3096 3.6015,-3.5079 5.6595,-4.6772 4.4221,-1.34 9.1419,-1.34 13.564,0 3.1353,0.7394 6.4277,0.4101 9.3545,-0.9355 2.4592,-1.8929 5.2072,-3.3774 8.1384,-4.3966 2.404,-1.6637 4.1823,-4.0841 5.0514,-6.8755 0.8419,-2.3387 3.087,-4.116 2.8999,-6.782 -0.7016,-0.6081 -1.45,-1.8709 -2.479,-1.8242 -1.3096,1.8242 -2.245,3.6951 -3.695,5.4256 -6.2207,8.4659 -11.0851,9.3545 -23.6668,9.3545 -9.1616,-0.7175 -18.1298,2.9009 -24.2282,9.7755 -0.455,0.2246 -1.0029,0.1301 -1.3564,-0.2339 -0.01,-1.2452 0.3476,-2.4657 1.029,-3.5079 5.753,-8.1384 14.6866,-10.0561 24.1346,-10.1964 4.984,-0.1482 9.8856,-1.3099 14.4059,-3.4144 4.6598,-2.3714 8.3118,-6.3388 10.29,-11.1786 1.1225,-5.4256 1.5434,-11.2254 2.8998,-16.4171 0,-0.5145 1.45,-0.8887 1.8709,-0.7484 0.421,0.1403 1.5435,0.5613 1.5435,1.1693 -1.6979,5.4265 -1.9079,11.2092 -0.608,16.7445 4.116,5.4256 11.7399,2.479 17.3526,2.2451 5.3621,-0.339 10.7427,-0.2452 16.0897,0.2807 2.7596,0 4.6772,0.608 6.9223,-1.1226 0.6136,-0.9736 0.8468,-2.1393 0.6548,-3.2741 0,-1.5434 -1.4499,-2.4789 0,-3.7885 0.6921,-0.2937 1.4912,-0.1666 2.058,0.3274 0.5177,2.228 1.3525,4.3702 2.4789,6.361 2.9184,3.4433 6.5173,6.246 10.5706,8.232 3.7864,2.1988 6.3293,6.0391 6.8756,10.3835 0,2.245 -2.058,3.7885 -3.7886,4.6772 -2.8375,1.6405 -6.0788,2.4508 -9.3545,2.3386 -4.6772,-2.2451 -5.753,-7.0626 -8.7464,-10.5706 -1.6481,-1.5619 -3.9362,-2.2552 -6.174,-1.8708 -2.4358,0.1001 -4.8523,0.4767 -7.203,1.1225 -0.5651,0.5244 -0.8287,1.2977 -0.7015,2.058 1.5434,2.8531 3.274,5.5659 4.9578,8.419 1.9645,1.2161 4.6773,-0.7016 6.4546,1.45 1.1644,2.4531 2.7471,4.6848 4.6773,6.5949 2.2337,2.0249 5.4163,2.6216 8.2319,1.5435 6.4529,-1.7956 12.7181,-4.2076 18.709,-7.203 h 1.9644 c 2.3854,-0.2339 5.0515,0 6.782,-1.8709 1.752,-2.6298 3.315,-5.3807 4.6773,-8.2319 1.0246,-2.2591 1.0246,-4.8504 0,-7.1094 -2.6628,-3.5668 -4.7173,-7.5494 -6.0804,-11.7867 -1.3807,-0.666 -2.87,-1.0779 -4.3966,-1.2161 -0.7484,0.3274 -1.8709,0 -2.3387,1.029 l 6.782,13.3769 c 0.5979,1.2012 0.8412,2.5477 0.7016,3.8821 -0.8661,2.9064 -2.4787,5.535 -4.6772,7.6239 -0.421,0.2339 -0.9355,0.5145 -1.2629,0 1.1344,-2.9978 1.7971,-6.1535 1.9645,-9.3544 l -6.5949,-11.927 c -0.7952,-1.637 -2.1516,-3.087 -2.058,-4.9579 0.1213,-0.8133 0.6776,-1.4951 1.4499,-1.7773 2.8999,-0.9355 6.4546,-0.7952 8.6529,-3.087 2.5184,-4.4092 3.9906,-9.3378 4.3031,-14.4059 0.2968,-0.501 0.7879,-0.8566 1.3564,-0.9823 0.5145,0 1.1225,0.5613 1.3564,0.842 0.9645,5.8026 -0.3968,11.7515 -3.7886,16.5574 0,0.608 -0.4209,1.3564 0.2806,1.8241 3.1874,0.7682 6.5492,0.2471 9.3545,-1.4499 3.3535,-0.103 6.6895,-0.5258 9.9626,-1.2629 0.3642,0.1397 0.6298,0.4585 0.7015,0.8419 -2.0431,2.2933 -3.4039,5.1123 -3.9288,8.1384 -2.5725,2.6661 -6.2675,5.0047 -6.5482,8.84 0.421,1.8709 2.058,0 3.1805,0.2339 0.4943,0.091 0.8503,0.5264 0.8419,1.029 l -2.5724,3.7885 c -1.3564,2.2451 0.2338,4.6773 0.2338,6.9691 0.8687,1.7504 2.7339,2.7762 4.6773,2.5725 3.6921,-0.414 7.302,-1.3756 10.7109,-2.8531 4.0521,-1.436 8.4216,-1.7273 12.6285,-0.8419 3.887,-0.6591 7.4337,-2.6221 10.0561,-5.5659 1.6635,0.1723 3.1843,1.0172 4.2095,2.3386 4.4875,4.8049 10.8831,7.3598 17.4461,6.9691 l 0.6081,-0.3274 c 0.4027,-0.4909 0.269,-1.2258 -0.2807,-1.5435 l -4.0224,-2.058 c -3.1864,-1.5833 -5.7539,-4.1838 -7.2965,-7.39 -1.0012,-3.0465 -2.3842,-5.954 -4.116,-8.6529 -0.608,-1.3564 -1.9644,-2.479 -2.5725,-3.8821 0,0 0.3275,-0.421 0.6081,-0.3275 4.2456,2 7.5845,5.5225 9.3545,9.869 2.831,4.994 8.3121,7.8807 14.0317,7.3901 l 0.5145,-0.421 c 0.2188,-0.3081 0.2188,-0.7209 0,-1.029 l -3.087,-1.5435 z m -67.5862,-60.5235 v 0 0 0 c -0.3196,0.2858 -0.8029,0.2858 -1.1225,0 v 0 0 c -0.5892,-3.5608 -1.5293,-7.0546 -2.8064,-10.4303 l -0.7951,-1.3564 -0.3274,-0.4209 -0.7016,-0.9823 c -0.755,-0.9811 -0.8822,-2.3076 -0.3274,-3.4143 v 0 c 0.6977,-0.5642 1.6458,-0.7073 2.479,-0.3742 v 0 c 1.3033,1.0499 2.3576,2.3757 3.0869,3.8821 0.9006,2.2767 1.3456,4.7081 1.3097,7.1562 -6e-4,2.0065 -0.2681,4.004 -0.7952,5.9401 z m 32.7407,56.6882 v 0 0 0 c -1.7278,0.5143 -3.5327,0.7202 -5.332,0.608 v 0 h -0.3742 l -0.3742,-0.2339 c -0.3214,-0.2136 -0.4563,-0.6184 -0.3274,-0.9822 0.902,-2.6393 3.0591,-4.6561 5.753,-5.3788 h 0.6081 0.608 c 0.5038,0.1314 0.8752,0.5586 0.9355,1.0757 0.024,0.4519 0.024,0.9046 0,1.3564 0.1281,1.3549 -0.3923,2.6905 -1.4032,3.6015 z m 10.5238,-23.3863 v 0 l -0.2338,0.7484 v 0.7484 c -0.1668,0.5793 -0.6306,1.0253 -1.2161,1.1693 -0.2938,0.1499 -0.6417,0.1499 -0.9355,0 -0.2754,-0.211 -0.4321,-0.5419 -0.4209,-0.8887 v -0.7484 l -0.2806,-2.6192 c -0.1372,-1.0713 -0.5215,-2.0961 -1.1226,-2.9935 l -1.1693,-1.3564 -1.3096,-1.4967 c -0.7133,-0.867 -1.7371,-1.4209 -2.8531,-1.5435 -0.8282,0.2915 -1.5576,0.8102 -2.1048,1.4968 l -0.9355,1.1225 -0.7951,1.0758 c -0.2806,0.5145 -0.9354,0 -0.9354,0 v 0 0 c -0.1891,-0.4762 -0.2844,-0.9844 -0.2807,-1.4968 0.026,-0.7443 0.2008,-1.476 0.5145,-2.1515 l 0.7016,-1.4499 0.7951,-1.6838 v 0 c 0.3437,-0.3934 0.5989,-0.8559 0.7484,-1.3564 v -0.5613 l 0.4677,-1.2161 c 0.3858,-1.4937 2.1286,-2.1622 3.4144,-1.3096 1.0428,0.6187 1.8993,1.5075 2.479,2.5725 l 0.3741,0.6548 0.4678,0.7951 1.029,1.3096 c 2.4695,2.3957 3.9401,5.6378 4.1159,9.0739 0,0.77 -0.075,1.5382 -0.2338,2.2918 z m 261.92558,49.6256 v 0 c 2.6661,2.5725 7.9514,1.4967 11.5061,1.4967 v -0.3742 c -0.4215,-3.244 -1.3528,-6.4011 -2.7596,-9.3545 -4.3966,0.2807 -6.5481,-4.6772 -9.1206,-7.2029 -2.5725,-2.5257 -6.3611,-3.9289 -6.2675,-7.6239 -0.6429,-1.857 -1.1893,-3.746 -1.6371,-5.6595 -0.608,-1.5435 -1.2161,-3.7886 -3.274,-4.116 -3.6951,-0.608 -8.1384,0.421 -10.4771,-2.9934 -2.3854,-2.5725 0.2807,-5.5659 0.7016,-8.0916 0.9767,-3.4681 1.1843,-7.1076 0.6081,-10.6641 0,-1.8709 -1.3564,-3.4144 -1.029,-5.3321 0.3274,-1.9177 2.8999,-0.421 4.2095,-0.2806 4.9559,1.2509 10.1867,0.8232 14.8736,-1.2161 6.3288,-2.8044 10.4536,-9.0281 10.5706,-15.9494 -0.8419,-9.0271 -7.2965,-16.3704 -14.0317,-22.2169 -1.4697,-0.9669 -2.6369,-2.3287 -3.3677,-3.9289 0,-3.5079 3.7886,-1.8241 5.7531,-2.666 2.3971,-0.4424 4.6946,-1.3139 6.782,-2.5725 4.8062,-3.6679 6.9139,-9.8802 5.332,-15.7156 0,-0.5145 0,-1.3096 -0.9354,-1.3096 -0.9533,0.9445 -1.9861,1.8052 -3.087,2.5725 -3.3676,1.9644 -7.811,1.637 -11.3189,3.3676 -4.9704,1.4702 -9.1677,4.828 -11.6932,9.3545 -0.4327,2.4391 0,4.9528 1.2161,7.1094 5.3321,8.4191 16.5575,14.0317 18.3816,24.041 0.4925,3.7799 -1.3578,7.4806 -4.6772,9.3545 -5.3908,2.5283 -11.6763,2.2664 -16.8381,-0.7016 -9.3545,-4.6772 -17.35258,-12.3479 -27.31508,-15.5284 -6.2675,-2.8531 -14.0318,-2.1515 -19.5509,-6.5014 -3.8262,-3.1769 -8.1372,-5.7193 -12.7689,-7.5303 -3.3855,-0.5839 -6.7175,-1.4442 -9.9625,-2.5725 -2.9951,-2.796 -6.3446,-5.1862 -9.9625,-7.1094 -5.0909,-2.3062 -10.4483,-3.9715 -15.9494,-4.9579 -3.2741,-0.7951 -4.6773,-4.3966 -7.1094,-6.174 -4.3159,-3.8996 -9.9989,-5.934 -15.8091,-5.6594 -2.5203,0.4452 -4.8225,1.7114 -6.5482,3.6014 -13.143,11.5061 -28.0634,19.4106 -40.1775,32.7407 -8.0916,8.3255 -10.1964,18.709 -13.2366,29.0925 -4.303,15.4349 -6.0804,32.4601 -21.6556,42.0952 -0.3061,0.5032 -0.2076,1.1535 0.2339,1.5435 3.9818,0.8919 8.1369,-0.4099 10.8979,-3.4144 2.6486,-4.3186 5.7026,-8.3749 9.1207,-12.1141 l 0.8419,-0.4209 c 0.4209,0 0.9354,0.3274 0.7951,0.9354 -1.029,3.4144 -4.116,5.9401 -5.145,9.3545 -1.9712,4.0788 -4.9492,7.588 -8.6529,10.1964 v 0.5145 c 0.05,0.4606 0.3891,0.8374 0.8419,0.9354 7.5772,0.3275 12.956,-5.0514 18.0074,-10.1496 0.5269,-0.4252 1.2424,-0.5325 1.8709,-0.2806 2.0247,2.0737 4.485,3.6713 7.203,4.6772 3.1803,-0.5505 6.4109,-0.7544 9.6351,-0.608 4.6772,1.3564 8.9335,3.2741 13.4704,4.6772 2.3387,0 4.0225,-2.3386 5.2386,-4.2095 1.216,-1.8709 -0.421,-4.6772 -0.2339,-6.5949 1.1225,-0.7016 2.3854,0 3.6015,0 0.5381,-0.3378 0.8849,-0.9101 0.9354,-1.5435 -0.8419,-3.9289 -4.3966,-6.8755 -5.4724,-10.5705 -1.7305,-4.6773 -7.2965,-7.5772 -8.3254,-12.6286 0.2338,-0.3274 0.7015,-0.8419 1.1225,-0.5145 3.2327,3.1759 7.1776,5.5332 11.506,6.8755 3.4425,0.4404 6.9167,0.5812 10.3835,0.421 0.5561,-0.1984 0.8771,-0.7802 0.7483,-1.3564 -1.5201,-2.9964 -2.7572,-6.1281 -3.695,-9.3545 -1.535,-4.7461 -1.7771,-9.8157 -0.7016,-14.6865 0.2339,-0.3274 1.3564,-0.9823 1.8709,-0.8419 0.7677,0.2392 1.3757,0.8297 1.6371,1.5902 0.5145,7.2965 -0.2339,14.0318 4.1159,19.738 1.8709,2.9934 5.145,3.6015 7.4836,5.9401 0.9085,1.3924 1.0663,3.145 0.421,4.6772 l -5.4256,7.6707 c -1.2879,1.645 -2.2557,3.5172 -2.8531,5.5192 -0.3019,2.0782 -0.3019,4.1892 0,6.2675 -0.3274,0 -0.5145,-0.3274 -0.8419,-0.5145 -1.88,-2.8933 -2.4092,-6.461 -1.45,-9.7755 l 6.5949,-10.2431 0.2807,-0.7952 c -1.4721,-0.8222 -3.0442,-1.451 -4.6773,-1.8709 -0.7518,0.4449 -1.3792,1.0723 -1.8241,1.8242 l -6.4546,11.6931 c -0.5606,1.2121 -0.74,2.5658 -0.5145,3.8821 0.2978,1.6224 0.8172,3.1962 1.5435,4.6772 0.3725,2.1496 1.0662,4.2309 2.058,6.174 1.637,1.7773 3.8821,0 5.9401,0.7016 2.058,0.7016 2.8531,2.9934 4.6772,3.6015 4.6773,1.5434 9.6351,2.3853 14.0317,4.2095 2.3854,0.7951 5.8466,1.7305 7.9981,-0.2807 2.596,-1.7702 4.194,-4.6707 4.3031,-7.811 0.9354,-1.3096 2.8063,-0.7483 4.2095,-1.216 2.5725,-1.7306 3.4144,-4.6773 5.3321,-7.1095 l 0.3274,-1.216 c -0.2915,-0.7109 -0.8962,-1.2465 -1.6371,-1.45 h -8.7464 c -4.0224,0.5145 -4.3966,4.9579 -6.0804,7.7175 -0.9631,1.6237 -2.808,2.5092 -4.6773,2.245 -4.1159,-1.1225 -9.3544,-1.7305 -11.085,-6.1739 -0.3889,-1.1222 -0.1578,-2.3663 0.608,-3.2741 2.2207,-2.6946 4.6954,-5.1694 7.3901,-7.39 3.9231,-0.9818 7.2911,-3.491 9.3544,-6.9691 1.029,-1.45 0.842,-3.6015 2.5725,-4.6773 0.5145,0 1.6838,0 2.0112,0.3742 0.7952,2.479 -0.608,4.2563 -1.4031,6.4078 9.3545,0.9355 16.6042,-1.7773 25.7248,-1.4031 3.8821,0 7.3433,0.4209 11.0851,0 3.9278,0.2189 7.5728,-2.0429 9.1206,-5.6595 1.7306,-5.0514 -0.6548,-10.8044 -1.5435,-15.622 l 1.029,-0.8419 c 0.608,-0.3274 1.5903,0 2.058,0.4677 1.6298,4.88 2.7735,9.9091 3.4144,15.014 0.7955,3.9646 2.4918,7.6933 4.9579,10.898 4.4095,6.3223 12.2452,9.2932 19.73788,7.4835 9.0801,-0.3267 17.7075,3.9694 22.9185,11.4125 v 0.421 c 0,0.3274 -0.5145,0.7483 -0.9354,0.7016 -4.4674,-4.2717 -10.0133,-7.2467 -16.043,-8.6062 -6.3143,-1.1693 -12.02048,2.1516 -18.70898,-0.5145 -7.9513,-2.6192 -11.3189,-7.5303 -14.6865,-15.3881 h -0.7016 c -0.511,0.1493 -0.8807,0.593 -0.9354,1.1225 l 0.8419,5.3321 c 0.3983,4.6888 3.0261,8.9003 7.0626,11.3189 3.6015,2.1516 7.1094,5.2385 11.5996,4.0225 7.5701,-1.5957 15.46158,0.105 21.70238,4.6772 1.9644,1.1225 3.5079,3.1805 5.6594,3.9289 2.3869,0.9034 5.0736,0.4764 7.0627,-1.1226 4.3966,-1.4499 5.4256,4.0225 8.419,5.9869 z m -174.22728,-24.6491 v 0 0 c -0.6532,0.4158 -1.4284,0.5973 -2.1983,0.5145 h -1.637 -0.5613 v 0 c -1.4868,-1.0827 -2.3302,-2.8399 -2.245,-4.6772 -0.022,-0.5595 0.2203,-1.0968 0.6548,-1.45 v 0 0 c 1.9032,-0.1398 3.7652,0.6015 5.0514,2.0112 v 0 l 0.3274,0.6549 0.5145,1.0757 v 0 0 c 0.064,0.3558 0.064,0.72 0,1.0758 0.078,0.3228 0.078,0.6594 0,0.9822 z m 1.9645,-29.7005 v 0 0.8419 c -0.2124,0.3129 -0.4822,0.5827 -0.7951,0.7952 -0.3412,0.2221 -0.7814,0.2221 -1.1226,0 -0.452,-0.1818 -0.8419,-0.4904 -1.1225,-0.8887 l -0.3742,-0.5613 -0.3274,-0.5613 c -0.3742,-0.6548 -0.7484,-1.1693 -1.637,-1.0757 -0.6965,-0.015 -1.376,0.2167 -1.9177,0.6548 l -0.5613,0.4209 -0.3274,0.2339 -0.8887,0.6081 -1.2161,1.0289 -0.5144,0.4678 -1.7306,1.5902 c -1.0828,0.998 -1.8338,2.3039 -2.1516,3.7418 l -0.2338,0.8887 v 0.3742 0.5613 c -0.074,0.6509 -0.4121,1.2429 -0.9355,1.637 -0.4494,0.1238 -0.9308,0.038 -1.3096,-0.2339 -0.2871,-0.2061 -0.4604,-0.5353 -0.4677,-0.8887 -0.4199,-3.9813 1.0519,-7.9292 3.9756,-10.6641 1.3599,-1.1657 2.5979,-2.4664 3.6951,-3.8821 l 1.1225,-1.4499 2.2451,-2.8064 h 0.2338 c 1.2916,-0.1293 2.5193,0.5884 3.0402,1.7774 1.5136,1.9862 2.7416,4.1746 3.6483,6.5013 0.029,0.186 0.029,0.3753 0,0.5613 0.01,0.1245 0.01,0.2497 0,0.3742 z m 35.0325,-48.8304 v 0 l -0.3741,0.7484 -0.421,0.6548 -2.7128,2.5257 -2.8999,2.7128 c -1.7686,1.6859 -3.3379,3.5691 -4.6772,5.6127 -0.8933,1.3123 -1.6607,2.7061 -2.2919,4.1627 -0.2137,0.3214 -0.6185,0.4563 -0.9822,0.3274 v 0 0 c -0.1875,-0.5576 -0.2823,-1.1422 -0.2806,-1.7305 -0.047,-0.5135 -0.047,-1.0301 0,-1.5435 l 0.5612,-2.1516 0.2807,-0.9822 c 2.1556,-5.025 5.6504,-9.3612 10.1028,-12.535 0.7908,-0.4618 1.7308,-0.5961 2.6193,-0.3742 0.5131,0.1511 0.9275,0.531 1.1225,1.029 0.2069,0.3213 0.3202,0.6937 0.3274,1.0758 0.045,0.2474 0.045,0.5009 0,0.7483 v 0 0 z m 21.7024,78.9051 v 0 c -2.3386,0.4209 -4.9578,0 -7.2965,0.2339 -1.2147,1.5574 -1.8288,3.4997 -1.7305,5.4723 0.2806,2.1516 2.666,2.3387 4.2095,2.8999 1.5435,0.5613 3.6015,0.7016 4.3966,-0.8419 0.9109,-2.2592 1.5696,-4.6121 1.9644,-7.0158 -0.1771,-0.6702 -0.895,-1.04 -1.5435,-0.7952 z m -228.7639,2.5725 v 0 c 1.7306,1.8709 1.637,4.6772 3.6015,6.2675 2.4945,0.3038 4.9992,-0.48 6.8755,-2.1515 1.1225,-0.9355 -0.5145,-2.1516 -0.7016,-3.2741 -1.1225,-1.6371 -0.3274,-4.6773 -3.087,-4.9579 -2.7265,0.3842 -5.4788,0.5562 -8.2319,0.5145 l -0.7951,0.5145 c -0.5145,1.637 1.8709,1.637 2.3386,3.087 z"
             style="fill:#ea1d2c;fill-opacity:1;stroke-width:1.60749"
             id="path166"
             sodipodi:nodetypes="cccscsccccscccccccccsccccccccscccccscccsccccccccccccccccccccccccccccccccccccccccccccssccccccccccccccccccscccccccccccccccccccccccccccccccccccccccccccccccccccccccccccccccccccccccsccsscsccccssssccscccsscccccccccccccccccccccccccccccsccccsccccccccccccscccsccccccsccccccccccccccccccccccccccccccccccccccccccscccccccccccccccccccccccccccccsccccccccccccccccccccccccccccsccccccccccccccccscccscscssccccsccccccccccccccccccccccccscccccccccccccccccccscsccccccccsccccsccsccccssccccccs" />
        </g>
      </g>
    </g>
  </g>
</svg>
